<mxfile host="app.diagrams.net" modified="2023-12-23T19:32:39.811Z" agent="Mozilla/5.0 (Windows NT 10.0; Win64; x64) AppleWebKit/537.36 (KHTML, like Gecko) Chrome/119.0.0.0 Safari/537.36 OPR/105.0.0.0" etag="PV2wifut_xRTk2va8Mt6" version="22.1.11" type="device">
  <diagram name="Page-1" id="XO49i9onH05lIG3nbgFd">
    <mxGraphModel dx="2281" dy="658" grid="1" gridSize="10" guides="1" tooltips="1" connect="1" arrows="1" fold="1" page="1" pageScale="1" pageWidth="827" pageHeight="1169" math="0" shadow="0">
      <root>
        <mxCell id="0" />
        <mxCell id="1" parent="0" />
        <mxCell id="NEAYHlA8jCif_8vsLs7x-7" style="edgeStyle=orthogonalEdgeStyle;rounded=0;orthogonalLoop=1;jettySize=auto;html=1;exitX=0.5;exitY=1;exitDx=0;exitDy=0;entryX=0.5;entryY=0;entryDx=0;entryDy=0;" edge="1" parent="1" source="NEAYHlA8jCif_8vsLs7x-1" target="NEAYHlA8jCif_8vsLs7x-6">
          <mxGeometry relative="1" as="geometry" />
        </mxCell>
        <mxCell id="NEAYHlA8jCif_8vsLs7x-8" value="clique sur le bouton" style="edgeLabel;html=1;align=center;verticalAlign=middle;resizable=0;points=[];" vertex="1" connectable="0" parent="NEAYHlA8jCif_8vsLs7x-7">
          <mxGeometry x="-0.0457" relative="1" as="geometry">
            <mxPoint as="offset" />
          </mxGeometry>
        </mxCell>
        <mxCell id="NEAYHlA8jCif_8vsLs7x-1" value="Accès à la page avec le bouton de connexion&amp;nbsp;" style="rounded=1;whiteSpace=wrap;html=1;" vertex="1" parent="1">
          <mxGeometry x="280" y="30" width="170" height="80" as="geometry" />
        </mxCell>
        <mxCell id="NEAYHlA8jCif_8vsLs7x-3" value="" style="shape=singleArrow;whiteSpace=wrap;html=1;arrowWidth=0.4;arrowSize=0.4;" vertex="1" parent="1">
          <mxGeometry x="70" y="50" width="170" height="60" as="geometry" />
        </mxCell>
        <mxCell id="NEAYHlA8jCif_8vsLs7x-4" value="&lt;br style=&quot;border-color: var(--border-color); color: rgb(0, 0, 0); font-family: Helvetica; font-size: 12px; font-style: normal; font-variant-ligatures: normal; font-variant-caps: normal; font-weight: 400; letter-spacing: normal; orphans: 2; text-align: center; text-indent: 0px; text-transform: none; widows: 2; word-spacing: 0px; -webkit-text-stroke-width: 0px; background-color: rgb(251, 251, 251); text-decoration-thickness: initial; text-decoration-style: initial; text-decoration-color: initial;&quot;&gt;&lt;span style=&quot;color: rgb(0, 0, 0); font-family: Helvetica; font-size: 12px; font-style: normal; font-variant-ligatures: normal; font-variant-caps: normal; font-weight: 400; letter-spacing: normal; orphans: 2; text-align: center; text-indent: 0px; text-transform: none; widows: 2; word-spacing: 0px; -webkit-text-stroke-width: 0px; background-color: rgb(251, 251, 251); text-decoration-thickness: initial; text-decoration-style: initial; text-decoration-color: initial; float: none; display: inline !important;&quot;&gt;Ouverture de l&#39;application&amp;nbsp;&lt;/span&gt;" style="text;whiteSpace=wrap;html=1;" vertex="1" parent="1">
          <mxGeometry x="70" y="53" width="170" height="50" as="geometry" />
        </mxCell>
        <mxCell id="NEAYHlA8jCif_8vsLs7x-13" style="edgeStyle=orthogonalEdgeStyle;rounded=0;orthogonalLoop=1;jettySize=auto;html=1;exitX=0.5;exitY=1;exitDx=0;exitDy=0;entryX=0.5;entryY=0;entryDx=0;entryDy=0;" edge="1" parent="1" source="NEAYHlA8jCif_8vsLs7x-6" target="NEAYHlA8jCif_8vsLs7x-12">
          <mxGeometry relative="1" as="geometry" />
        </mxCell>
        <mxCell id="NEAYHlA8jCif_8vsLs7x-14" value="clique sur le bouton&amp;nbsp;" style="edgeLabel;html=1;align=center;verticalAlign=middle;resizable=0;points=[];" vertex="1" connectable="0" parent="NEAYHlA8jCif_8vsLs7x-13">
          <mxGeometry x="-0.2467" y="-1" relative="1" as="geometry">
            <mxPoint as="offset" />
          </mxGeometry>
        </mxCell>
        <mxCell id="NEAYHlA8jCif_8vsLs7x-144" style="edgeStyle=orthogonalEdgeStyle;rounded=0;orthogonalLoop=1;jettySize=auto;html=1;exitX=1;exitY=0.5;exitDx=0;exitDy=0;entryX=0;entryY=0.5;entryDx=0;entryDy=0;" edge="1" parent="1" source="NEAYHlA8jCif_8vsLs7x-6" target="NEAYHlA8jCif_8vsLs7x-143">
          <mxGeometry relative="1" as="geometry" />
        </mxCell>
        <mxCell id="NEAYHlA8jCif_8vsLs7x-6" value="accès à la page des d&#39;authentification&amp;nbsp;" style="rounded=1;whiteSpace=wrap;html=1;" vertex="1" parent="1">
          <mxGeometry x="280" y="180" width="170" height="60" as="geometry" />
        </mxCell>
        <mxCell id="NEAYHlA8jCif_8vsLs7x-19" style="edgeStyle=orthogonalEdgeStyle;rounded=0;orthogonalLoop=1;jettySize=auto;html=1;exitX=0.5;exitY=1;exitDx=0;exitDy=0;entryX=0.5;entryY=0;entryDx=0;entryDy=0;" edge="1" parent="1" source="NEAYHlA8jCif_8vsLs7x-12" target="NEAYHlA8jCif_8vsLs7x-16">
          <mxGeometry relative="1" as="geometry" />
        </mxCell>
        <mxCell id="NEAYHlA8jCif_8vsLs7x-21" style="edgeStyle=orthogonalEdgeStyle;rounded=0;orthogonalLoop=1;jettySize=auto;html=1;exitX=0.75;exitY=1;exitDx=0;exitDy=0;entryX=0.25;entryY=0;entryDx=0;entryDy=0;" edge="1" parent="1" source="NEAYHlA8jCif_8vsLs7x-12" target="NEAYHlA8jCif_8vsLs7x-17">
          <mxGeometry relative="1" as="geometry" />
        </mxCell>
        <mxCell id="NEAYHlA8jCif_8vsLs7x-12" value="Accès à la page d&#39;accueil&amp;nbsp;" style="rounded=1;whiteSpace=wrap;html=1;" vertex="1" parent="1">
          <mxGeometry x="275" y="300" width="180" height="60" as="geometry" />
        </mxCell>
        <mxCell id="NEAYHlA8jCif_8vsLs7x-32" style="edgeStyle=orthogonalEdgeStyle;rounded=0;orthogonalLoop=1;jettySize=auto;html=1;exitX=0;exitY=0.75;exitDx=0;exitDy=0;" edge="1" parent="1" source="NEAYHlA8jCif_8vsLs7x-15" target="NEAYHlA8jCif_8vsLs7x-22">
          <mxGeometry relative="1" as="geometry" />
        </mxCell>
        <mxCell id="NEAYHlA8jCif_8vsLs7x-33" style="rounded=0;orthogonalLoop=1;jettySize=auto;html=1;exitX=0;exitY=1;exitDx=0;exitDy=0;" edge="1" parent="1" source="NEAYHlA8jCif_8vsLs7x-15" target="NEAYHlA8jCif_8vsLs7x-23">
          <mxGeometry relative="1" as="geometry" />
        </mxCell>
        <mxCell id="NEAYHlA8jCif_8vsLs7x-15" value="accès à la page des activités&amp;nbsp;" style="rounded=1;whiteSpace=wrap;html=1;" vertex="1" parent="1">
          <mxGeometry x="70" y="430" width="190" height="60" as="geometry" />
        </mxCell>
        <mxCell id="NEAYHlA8jCif_8vsLs7x-35" style="rounded=0;orthogonalLoop=1;jettySize=auto;html=1;exitX=0.25;exitY=1;exitDx=0;exitDy=0;entryX=0.5;entryY=0;entryDx=0;entryDy=0;" edge="1" parent="1" source="NEAYHlA8jCif_8vsLs7x-16" target="NEAYHlA8jCif_8vsLs7x-25">
          <mxGeometry relative="1" as="geometry" />
        </mxCell>
        <mxCell id="NEAYHlA8jCif_8vsLs7x-36" style="rounded=0;orthogonalLoop=1;jettySize=auto;html=1;exitX=0.5;exitY=1;exitDx=0;exitDy=0;entryX=0;entryY=0;entryDx=0;entryDy=0;" edge="1" parent="1" source="NEAYHlA8jCif_8vsLs7x-16" target="NEAYHlA8jCif_8vsLs7x-26">
          <mxGeometry relative="1" as="geometry" />
        </mxCell>
        <mxCell id="NEAYHlA8jCif_8vsLs7x-37" style="edgeStyle=orthogonalEdgeStyle;rounded=0;orthogonalLoop=1;jettySize=auto;html=1;exitX=0.75;exitY=1;exitDx=0;exitDy=0;entryX=0.25;entryY=0;entryDx=0;entryDy=0;" edge="1" parent="1" source="NEAYHlA8jCif_8vsLs7x-16" target="NEAYHlA8jCif_8vsLs7x-27">
          <mxGeometry relative="1" as="geometry" />
        </mxCell>
        <mxCell id="NEAYHlA8jCif_8vsLs7x-16" value="accès à la page des cotisation" style="rounded=1;whiteSpace=wrap;html=1;" vertex="1" parent="1">
          <mxGeometry x="273" y="430" width="185" height="60" as="geometry" />
        </mxCell>
        <mxCell id="NEAYHlA8jCif_8vsLs7x-39" style="rounded=0;orthogonalLoop=1;jettySize=auto;html=1;exitX=0.75;exitY=1;exitDx=0;exitDy=0;entryX=0.25;entryY=0;entryDx=0;entryDy=0;" edge="1" parent="1" source="NEAYHlA8jCif_8vsLs7x-17" target="NEAYHlA8jCif_8vsLs7x-29">
          <mxGeometry relative="1" as="geometry" />
        </mxCell>
        <mxCell id="NEAYHlA8jCif_8vsLs7x-40" style="rounded=0;orthogonalLoop=1;jettySize=auto;html=1;exitX=1;exitY=1;exitDx=0;exitDy=0;" edge="1" parent="1" source="NEAYHlA8jCif_8vsLs7x-17" target="NEAYHlA8jCif_8vsLs7x-30">
          <mxGeometry relative="1" as="geometry">
            <Array as="points">
              <mxPoint x="840" y="520" />
            </Array>
          </mxGeometry>
        </mxCell>
        <mxCell id="NEAYHlA8jCif_8vsLs7x-17" value="accès à la pages des tâches" style="rounded=1;whiteSpace=wrap;html=1;" vertex="1" parent="1">
          <mxGeometry x="490" y="430" width="190" height="60" as="geometry" />
        </mxCell>
        <mxCell id="NEAYHlA8jCif_8vsLs7x-18" style="edgeStyle=orthogonalEdgeStyle;rounded=0;orthogonalLoop=1;jettySize=auto;html=1;exitX=0.25;exitY=1;exitDx=0;exitDy=0;entryX=0.574;entryY=-0.037;entryDx=0;entryDy=0;entryPerimeter=0;" edge="1" parent="1" source="NEAYHlA8jCif_8vsLs7x-12" target="NEAYHlA8jCif_8vsLs7x-15">
          <mxGeometry relative="1" as="geometry" />
        </mxCell>
        <mxCell id="NEAYHlA8jCif_8vsLs7x-22" value="consulter les Activités&amp;nbsp;" style="whiteSpace=wrap;html=1;aspect=fixed;" vertex="1" parent="1">
          <mxGeometry x="-180" y="542" width="120" height="120" as="geometry" />
        </mxCell>
        <mxCell id="NEAYHlA8jCif_8vsLs7x-23" value="Voir les tâches assignées pour chaque activité&amp;nbsp;" style="whiteSpace=wrap;html=1;aspect=fixed;" vertex="1" parent="1">
          <mxGeometry x="-47" y="542" width="120" height="120" as="geometry" />
        </mxCell>
        <mxCell id="NEAYHlA8jCif_8vsLs7x-24" value="voir l&#39;évolution de chaque actualité&amp;nbsp;" style="whiteSpace=wrap;html=1;aspect=fixed;" vertex="1" parent="1">
          <mxGeometry x="90" y="545" width="115" height="115" as="geometry" />
        </mxCell>
        <mxCell id="NEAYHlA8jCif_8vsLs7x-25" value="Consulter la cotisation" style="whiteSpace=wrap;html=1;aspect=fixed;" vertex="1" parent="1">
          <mxGeometry x="230" y="540" width="110" height="110" as="geometry" />
        </mxCell>
        <mxCell id="NEAYHlA8jCif_8vsLs7x-26" value="effectuer un paiement de cotisation&amp;nbsp;" style="whiteSpace=wrap;html=1;aspect=fixed;" vertex="1" parent="1">
          <mxGeometry x="360" y="540" width="110" height="110" as="geometry" />
        </mxCell>
        <mxCell id="NEAYHlA8jCif_8vsLs7x-27" value="consulter paramètres de la cotisation&amp;nbsp;" style="whiteSpace=wrap;html=1;aspect=fixed;" vertex="1" parent="1">
          <mxGeometry x="490" y="540" width="110" height="110" as="geometry" />
        </mxCell>
        <mxCell id="NEAYHlA8jCif_8vsLs7x-28" value="consulter les taches assignées&amp;nbsp;" style="whiteSpace=wrap;html=1;aspect=fixed;" vertex="1" parent="1">
          <mxGeometry x="620" y="540" width="110" height="110" as="geometry" />
        </mxCell>
        <mxCell id="NEAYHlA8jCif_8vsLs7x-29" value="coché les tâches effectuées&amp;nbsp;" style="whiteSpace=wrap;html=1;aspect=fixed;" vertex="1" parent="1">
          <mxGeometry x="747" y="540" width="110" height="110" as="geometry" />
        </mxCell>
        <mxCell id="NEAYHlA8jCif_8vsLs7x-30" value="inspecter ma jauge de tâche&amp;nbsp;" style="whiteSpace=wrap;html=1;aspect=fixed;" vertex="1" parent="1">
          <mxGeometry x="880" y="540" width="110" height="110" as="geometry" />
        </mxCell>
        <mxCell id="NEAYHlA8jCif_8vsLs7x-34" style="edgeStyle=orthogonalEdgeStyle;rounded=0;orthogonalLoop=1;jettySize=auto;html=1;exitX=0.5;exitY=1;exitDx=0;exitDy=0;entryX=0.657;entryY=0.024;entryDx=0;entryDy=0;entryPerimeter=0;" edge="1" parent="1" source="NEAYHlA8jCif_8vsLs7x-15" target="NEAYHlA8jCif_8vsLs7x-24">
          <mxGeometry relative="1" as="geometry" />
        </mxCell>
        <mxCell id="NEAYHlA8jCif_8vsLs7x-38" style="rounded=0;orthogonalLoop=1;jettySize=auto;html=1;exitX=0.5;exitY=1;exitDx=0;exitDy=0;entryX=0.342;entryY=0.005;entryDx=0;entryDy=0;entryPerimeter=0;" edge="1" parent="1" source="NEAYHlA8jCif_8vsLs7x-17" target="NEAYHlA8jCif_8vsLs7x-28">
          <mxGeometry relative="1" as="geometry" />
        </mxCell>
        <mxCell id="NEAYHlA8jCif_8vsLs7x-143" value="renseignements des informations demandées&amp;nbsp;" style="ellipse;whiteSpace=wrap;html=1;" vertex="1" parent="1">
          <mxGeometry x="525" y="170" width="120" height="80" as="geometry" />
        </mxCell>
      </root>
    </mxGraphModel>
  </diagram>
</mxfile>
